<svg width="32" height="32" viewBox="0 0 32 32" fill="none" xmlns="http://www.w3.org/2000/svg">
<rect width="32" height="32" rx="16" fill=""/>
<path d="M12.3018 10.2031H14.9385V19.0625C14.9385 19.877 14.7568 20.5977 14.3936 21.2246C14.0361 21.8457 13.5293 22.3262 12.873 22.666C12.2168 23.0059 11.4756 23.1758 10.6494 23.1758C9.2959 23.1758 8.24121 22.833 7.48535 22.1475C6.72949 21.4561 6.35156 20.4805 6.35156 19.2207H9.00586C9.00586 19.8477 9.1377 20.3105 9.40137 20.6094C9.66504 20.9082 10.0811 21.0576 10.6494 21.0576C11.1533 21.0576 11.5547 20.8848 11.8535 20.5391C12.1523 20.1934 12.3018 19.7012 12.3018 19.0625V10.2031ZM23.833 19.6426C23.833 19.1445 23.6572 18.7637 23.3057 18.5C22.9541 18.2305 22.3213 17.9492 21.4072 17.6562C20.4932 17.3574 19.7695 17.0645 19.2363 16.7773C17.7832 15.9922 17.0566 14.9346 17.0566 13.6045C17.0566 12.9131 17.25 12.2979 17.6367 11.7588C18.0293 11.2139 18.5889 10.7891 19.3154 10.4844C20.0479 10.1797 20.8682 10.0273 21.7764 10.0273C22.6904 10.0273 23.5049 10.1943 24.2197 10.5283C24.9346 10.8564 25.4883 11.3223 25.8809 11.9258C26.2793 12.5293 26.4785 13.2148 26.4785 13.9824H23.8418C23.8418 13.3965 23.6572 12.9424 23.2881 12.6201C22.9189 12.292 22.4004 12.1279 21.7324 12.1279C21.0879 12.1279 20.5869 12.2656 20.2295 12.541C19.8721 12.8105 19.6934 13.168 19.6934 13.6133C19.6934 14.0293 19.9014 14.3779 20.3174 14.6592C20.7393 14.9404 21.3574 15.2041 22.1719 15.4502C23.6719 15.9014 24.7646 16.4609 25.4502 17.1289C26.1357 17.7969 26.4785 18.6289 26.4785 19.625C26.4785 20.7324 26.0596 21.6025 25.2217 22.2354C24.3838 22.8623 23.2559 23.1758 21.8379 23.1758C20.8535 23.1758 19.957 22.9971 19.1484 22.6396C18.3398 22.2764 17.7217 21.7812 17.2939 21.1543C16.8721 20.5273 16.6611 19.8008 16.6611 18.9746H19.3066C19.3066 20.3867 20.1504 21.0928 21.8379 21.0928C22.4648 21.0928 22.9541 20.9668 23.3057 20.7148C23.6572 20.457 23.833 20.0996 23.833 19.6426Z" fill="#F7DF1E"/>
</svg>
