<svg width="400" height="1000" viewBox="0 0 400 1000" fill="none" xmlns="http://www.w3.org/2000/svg">
<rect width="400" height="993.378" fill="url(#paint0_linear_322_175)"/>
<path d="M400 993.544C400 993.544 266.108 1093.45 187.964 507.259C134.776 108.278 49.2216 17.6788 0 0.50386L400 0V993.544Z" fill="#F1F4F9"/>
<rect x="372" y="429.359" width="5" height="5.51877" rx="2.5" fill="#C4C4C4"/>
<rect x="351" y="427.152" width="5" height="5.51877" rx="2.5" fill="#C4C4C4"/>
<rect x="372" y="450.332" width="5" height="5.51877" rx="2.5" fill="#C4C4C4"/>
<rect x="330" y="427.152" width="5" height="5.51877" rx="2.5" fill="#C4C4C4"/>
<rect x="351" y="448.125" width="5" height="5.51877" rx="2.5" fill="#C4C4C4"/>
<rect x="372" y="471.301" width="5" height="5.51877" rx="2.5" fill="#C4C4C4"/>
<rect x="309" y="427.152" width="5" height="5.51877" rx="2.5" fill="#C4C4C4"/>
<rect x="330" y="448.125" width="5" height="5.51877" rx="2.5" fill="#C4C4C4"/>
<rect x="351" y="469.094" width="5" height="5.51877" rx="2.5" fill="#C4C4C4"/>
<rect x="372" y="492.273" width="5" height="5.51877" rx="2.5" fill="#C4C4C4"/>
<rect x="288" y="427.152" width="5" height="5.51877" rx="2.5" fill="#C4C4C4"/>
<rect x="309" y="448.125" width="5" height="5.51877" rx="2.5" fill="#C4C4C4"/>
<rect x="330" y="469.094" width="5" height="5.51877" rx="2.5" fill="#C4C4C4"/>
<rect x="351" y="490.066" width="5" height="5.51877" rx="2.5" fill="#C4C4C4"/>
<rect x="372" y="513.246" width="5" height="5.51877" rx="2.5" fill="#C4C4C4"/>
<rect x="267" y="427.152" width="5" height="5.51877" rx="2.5" fill="#C4C4C4"/>
<rect x="288" y="448.125" width="5" height="5.51877" rx="2.5" fill="#C4C4C4"/>
<rect x="309" y="469.094" width="5" height="5.51877" rx="2.5" fill="#C4C4C4"/>
<rect x="330" y="490.066" width="5" height="5.51877" rx="2.5" fill="#C4C4C4"/>
<rect x="351" y="511.039" width="5" height="5.51877" rx="2.5" fill="#C4C4C4"/>
<rect x="372" y="534.215" width="5" height="5.51877" rx="2.5" fill="#C4C4C4"/>
<rect x="246" y="427.152" width="5" height="5.51877" rx="2.5" fill="#C4C4C4"/>
<rect x="267" y="448.125" width="5" height="5.51877" rx="2.5" fill="#C4C4C4"/>
<rect x="288" y="469.094" width="5" height="5.51877" rx="2.5" fill="#C4C4C4"/>
<rect x="309" y="490.066" width="5" height="5.51877" rx="2.5" fill="#C4C4C4"/>
<rect x="330" y="511.039" width="5" height="5.51877" rx="2.5" fill="#C4C4C4"/>
<rect x="351" y="532.008" width="5" height="5.51877" rx="2.5" fill="#C4C4C4"/>
<rect x="372" y="555.188" width="5" height="5.51877" rx="2.5" fill="#C4C4C4"/>
<rect x="246" y="448.125" width="5" height="5.51877" rx="2.5" fill="#C4C4C4"/>
<rect x="267" y="469.094" width="5" height="5.51877" rx="2.5" fill="#C4C4C4"/>
<rect x="288" y="490.066" width="5" height="5.51877" rx="2.5" fill="#C4C4C4"/>
<rect x="309" y="511.039" width="5" height="5.51877" rx="2.5" fill="#C4C4C4"/>
<rect x="330" y="532.008" width="5" height="5.51877" rx="2.5" fill="#C4C4C4"/>
<rect x="351" y="552.98" width="5" height="5.51877" rx="2.5" fill="#C4C4C4"/>
<rect x="372" y="576.16" width="5" height="5.51877" rx="2.5" fill="#C4C4C4"/>
<rect x="246" y="469.094" width="5" height="5.51877" rx="2.5" fill="#C4C4C4"/>
<rect x="267" y="490.066" width="5" height="5.51877" rx="2.5" fill="#C4C4C4"/>
<rect x="288" y="511.039" width="5" height="5.51877" rx="2.5" fill="#C4C4C4"/>
<rect x="309" y="532.008" width="5" height="5.51877" rx="2.5" fill="#C4C4C4"/>
<rect x="330" y="552.98" width="5" height="5.51877" rx="2.5" fill="#C4C4C4"/>
<rect x="351" y="573.953" width="5" height="5.51877" rx="2.5" fill="#C4C4C4"/>
<rect x="372" y="597.129" width="5" height="5.51877" rx="2.5" fill="#C4C4C4"/>
<rect x="246" y="490.066" width="5" height="5.51877" rx="2.5" fill="#C4C4C4"/>
<rect x="267" y="511.039" width="5" height="5.51877" rx="2.5" fill="#C4C4C4"/>
<rect x="288" y="532.008" width="5" height="5.51877" rx="2.5" fill="#C4C4C4"/>
<rect x="309" y="552.98" width="5" height="5.51877" rx="2.5" fill="#C4C4C4"/>
<rect x="330" y="573.953" width="5" height="5.51877" rx="2.5" fill="#C4C4C4"/>
<rect x="351" y="594.922" width="5" height="5.51877" rx="2.5" fill="#C4C4C4"/>
<rect x="372" y="618.102" width="5" height="5.51877" rx="2.5" fill="#C4C4C4"/>
<rect x="246" y="511.039" width="5" height="5.51877" rx="2.5" fill="#C4C4C4"/>
<rect x="267" y="532.008" width="5" height="5.51877" rx="2.5" fill="#C4C4C4"/>
<rect x="288" y="552.98" width="5" height="5.51877" rx="2.5" fill="#C4C4C4"/>
<rect x="309" y="573.953" width="5" height="5.51877" rx="2.5" fill="#C4C4C4"/>
<rect x="330" y="594.922" width="5" height="5.51877" rx="2.5" fill="#C4C4C4"/>
<rect x="351" y="615.895" width="5" height="5.51877" rx="2.5" fill="#C4C4C4"/>
<rect x="372" y="639.074" width="5" height="5.51877" rx="2.5" fill="#C4C4C4"/>
<rect x="246" y="532.008" width="5" height="5.51877" rx="2.5" fill="#C4C4C4"/>
<rect x="267" y="552.98" width="5" height="5.51877" rx="2.5" fill="#C4C4C4"/>
<rect x="288" y="573.953" width="5" height="5.51877" rx="2.5" fill="#C4C4C4"/>
<rect x="309" y="594.922" width="5" height="5.51877" rx="2.5" fill="#C4C4C4"/>
<rect x="330" y="615.895" width="5" height="5.51877" rx="2.5" fill="#C4C4C4"/>
<rect x="351" y="636.867" width="5" height="5.51877" rx="2.5" fill="#C4C4C4"/>
<rect x="372" y="660.043" width="5" height="5.51877" rx="2.5" fill="#C4C4C4"/>
<rect x="246" y="552.98" width="5" height="5.51877" rx="2.5" fill="#C4C4C4"/>
<rect x="267" y="573.953" width="5" height="5.51877" rx="2.5" fill="#C4C4C4"/>
<rect x="288" y="594.922" width="5" height="5.51877" rx="2.5" fill="#C4C4C4"/>
<rect x="309" y="615.895" width="5" height="5.51877" rx="2.5" fill="#C4C4C4"/>
<rect x="330" y="636.867" width="5" height="5.51877" rx="2.5" fill="#C4C4C4"/>
<rect x="351" y="657.836" width="5" height="5.51877" rx="2.5" fill="#C4C4C4"/>
<rect x="372" y="681.016" width="5" height="5.51877" rx="2.5" fill="#C4C4C4"/>
<rect x="246" y="573.953" width="5" height="5.51877" rx="2.5" fill="#C4C4C4"/>
<rect x="267" y="594.922" width="5" height="5.51877" rx="2.5" fill="#C4C4C4"/>
<rect x="288" y="615.895" width="5" height="5.51877" rx="2.5" fill="#C4C4C4"/>
<rect x="309" y="636.867" width="5" height="5.51877" rx="2.5" fill="#C4C4C4"/>
<rect x="330" y="657.836" width="5" height="5.51877" rx="2.5" fill="#C4C4C4"/>
<rect x="351" y="678.809" width="5" height="5.51877" rx="2.5" fill="#C4C4C4"/>
<rect x="372" y="701.988" width="5" height="5.51877" rx="2.5" fill="#C4C4C4"/>
<rect x="246" y="594.922" width="5" height="5.51877" rx="2.5" fill="#C4C4C4"/>
<rect x="267" y="615.895" width="5" height="5.51877" rx="2.5" fill="#C4C4C4"/>
<rect x="288" y="636.867" width="5" height="5.51877" rx="2.5" fill="#C4C4C4"/>
<rect x="309" y="657.836" width="5" height="5.51877" rx="2.5" fill="#C4C4C4"/>
<rect x="330" y="678.809" width="5" height="5.51877" rx="2.5" fill="#C4C4C4"/>
<rect x="351" y="699.777" width="5" height="5.51877" rx="2.5" fill="#C4C4C4"/>
<rect x="372" y="722.957" width="5" height="5.51877" rx="2.5" fill="#C4C4C4"/>
<rect x="246" y="615.895" width="5" height="5.51877" rx="2.5" fill="#C4C4C4"/>
<rect x="267" y="636.867" width="5" height="5.51877" rx="2.5" fill="#C4C4C4"/>
<rect x="288" y="657.836" width="5" height="5.51877" rx="2.5" fill="#C4C4C4"/>
<rect x="309" y="678.809" width="5" height="5.51877" rx="2.5" fill="#C4C4C4"/>
<rect x="330" y="699.777" width="5" height="5.51877" rx="2.5" fill="#C4C4C4"/>
<rect x="351" y="720.75" width="5" height="5.51877" rx="2.5" fill="#C4C4C4"/>
<rect x="372" y="743.93" width="5" height="5.51877" rx="2.5" fill="#C4C4C4"/>
<rect x="246" y="636.867" width="5" height="5.51877" rx="2.5" fill="#C4C4C4"/>
<rect x="267" y="657.836" width="5" height="5.51877" rx="2.5" fill="#C4C4C4"/>
<rect x="288" y="678.809" width="5" height="5.51877" rx="2.5" fill="#C4C4C4"/>
<rect x="309" y="699.777" width="5" height="5.51877" rx="2.5" fill="#C4C4C4"/>
<rect x="330" y="720.75" width="5" height="5.51877" rx="2.5" fill="#C4C4C4"/>
<rect x="351" y="741.723" width="5" height="5.51877" rx="2.5" fill="#C4C4C4"/>
<rect x="372" y="764.902" width="5" height="5.51877" rx="2.5" fill="#C4C4C4"/>
<rect x="246" y="657.836" width="5" height="5.51877" rx="2.5" fill="#C4C4C4"/>
<rect x="267" y="678.809" width="5" height="5.51877" rx="2.5" fill="#C4C4C4"/>
<rect x="288" y="699.777" width="5" height="5.51877" rx="2.5" fill="#C4C4C4"/>
<rect x="309" y="720.75" width="5" height="5.51877" rx="2.5" fill="#C4C4C4"/>
<rect x="330" y="741.723" width="5" height="5.51877" rx="2.5" fill="#C4C4C4"/>
<rect x="351" y="762.691" width="5" height="5.51877" rx="2.5" fill="#C4C4C4"/>
<rect x="372" y="785.871" width="5" height="5.51877" rx="2.5" fill="#C4C4C4"/>
<rect x="246" y="678.809" width="5" height="5.51877" rx="2.5" fill="#C4C4C4"/>
<rect x="267" y="699.777" width="5" height="5.51877" rx="2.5" fill="#C4C4C4"/>
<rect x="288" y="720.75" width="5" height="5.51877" rx="2.5" fill="#C4C4C4"/>
<rect x="309" y="741.723" width="5" height="5.51877" rx="2.5" fill="#C4C4C4"/>
<rect x="330" y="762.691" width="5" height="5.51877" rx="2.5" fill="#C4C4C4"/>
<rect x="351" y="783.664" width="5" height="5.51877" rx="2.5" fill="#C4C4C4"/>
<rect x="372" y="806.844" width="5" height="5.51877" rx="2.5" fill="#C4C4C4"/>
<rect x="246" y="699.777" width="5" height="5.51877" rx="2.5" fill="#C4C4C4"/>
<rect x="267" y="720.75" width="5" height="5.51877" rx="2.5" fill="#C4C4C4"/>
<rect x="288" y="741.723" width="5" height="5.51877" rx="2.5" fill="#C4C4C4"/>
<rect x="309" y="762.691" width="5" height="5.51877" rx="2.5" fill="#C4C4C4"/>
<rect x="330" y="783.664" width="5" height="5.51877" rx="2.5" fill="#C4C4C4"/>
<rect x="351" y="804.637" width="5" height="5.51877" rx="2.5" fill="#C4C4C4"/>
<rect x="372" y="827.816" width="5" height="5.51877" rx="2.5" fill="#C4C4C4"/>
<rect x="246" y="720.75" width="5" height="5.51877" rx="2.5" fill="#C4C4C4"/>
<rect x="267" y="741.723" width="5" height="5.51877" rx="2.5" fill="#C4C4C4"/>
<rect x="288" y="762.691" width="5" height="5.51877" rx="2.5" fill="#C4C4C4"/>
<rect x="309" y="783.664" width="5" height="5.51877" rx="2.5" fill="#C4C4C4"/>
<rect x="330" y="804.637" width="5" height="5.51877" rx="2.5" fill="#C4C4C4"/>
<rect x="351" y="825.605" width="5" height="5.51877" rx="2.5" fill="#C4C4C4"/>
<rect x="372" y="848.785" width="5" height="5.51877" rx="2.5" fill="#C4C4C4"/>
<rect x="246" y="741.723" width="5" height="5.51877" rx="2.5" fill="#C4C4C4"/>
<rect x="267" y="762.691" width="5" height="5.51877" rx="2.5" fill="#C4C4C4"/>
<rect x="288" y="783.664" width="5" height="5.51877" rx="2.5" fill="#C4C4C4"/>
<rect x="309" y="804.637" width="5" height="5.51877" rx="2.5" fill="#C4C4C4"/>
<rect x="330" y="825.605" width="5" height="5.51877" rx="2.5" fill="#C4C4C4"/>
<rect x="351" y="846.578" width="5" height="5.51877" rx="2.5" fill="#C4C4C4"/>
<rect x="372" y="869.758" width="5" height="5.51877" rx="2.5" fill="#C4C4C4"/>
<rect x="246" y="762.691" width="5" height="5.51877" rx="2.5" fill="#C4C4C4"/>
<rect x="267" y="783.664" width="5" height="5.51877" rx="2.5" fill="#C4C4C4"/>
<rect x="288" y="804.637" width="5" height="5.51877" rx="2.5" fill="#C4C4C4"/>
<rect x="309" y="825.605" width="5" height="5.51877" rx="2.5" fill="#C4C4C4"/>
<rect x="330" y="846.578" width="5" height="5.51877" rx="2.5" fill="#C4C4C4"/>
<rect x="351" y="867.551" width="5" height="5.51877" rx="2.5" fill="#C4C4C4"/>
<rect x="372" y="890.727" width="5" height="5.51877" rx="2.5" fill="#C4C4C4"/>
<rect x="246" y="783.664" width="5" height="5.51877" rx="2.5" fill="#C4C4C4"/>
<rect x="267" y="804.637" width="5" height="5.51877" rx="2.5" fill="#C4C4C4"/>
<rect x="288" y="825.605" width="5" height="5.51877" rx="2.5" fill="#C4C4C4"/>
<rect x="309" y="846.578" width="5" height="5.51877" rx="2.5" fill="#C4C4C4"/>
<rect x="330" y="867.551" width="5" height="5.51877" rx="2.5" fill="#C4C4C4"/>
<rect x="351" y="888.52" width="5" height="5.51877" rx="2.5" fill="#C4C4C4"/>
<rect x="372" y="911.699" width="5" height="5.51877" rx="2.5" fill="#C4C4C4"/>
<rect x="246" y="804.637" width="5" height="5.51877" rx="2.5" fill="#C4C4C4"/>
<rect x="267" y="825.605" width="5" height="5.51877" rx="2.5" fill="#C4C4C4"/>
<rect x="288" y="846.578" width="5" height="5.51877" rx="2.5" fill="#C4C4C4"/>
<rect x="309" y="867.551" width="5" height="5.51877" rx="2.5" fill="#C4C4C4"/>
<rect x="330" y="888.52" width="5" height="5.51877" rx="2.5" fill="#C4C4C4"/>
<rect x="351" y="909.492" width="5" height="5.51877" rx="2.5" fill="#C4C4C4"/>
<rect x="372" y="932.672" width="5" height="5.51877" rx="2.5" fill="#C4C4C4"/>
<rect x="246" y="825.605" width="5" height="5.51877" rx="2.5" fill="#C4C4C4"/>
<rect x="267" y="846.578" width="5" height="5.51877" rx="2.5" fill="#C4C4C4"/>
<rect x="288" y="867.551" width="5" height="5.51877" rx="2.5" fill="#C4C4C4"/>
<rect x="309" y="888.52" width="5" height="5.51877" rx="2.5" fill="#C4C4C4"/>
<rect x="330" y="909.492" width="5" height="5.51877" rx="2.5" fill="#C4C4C4"/>
<rect x="351" y="930.465" width="5" height="5.51877" rx="2.5" fill="#C4C4C4"/>
<rect x="372" y="953.641" width="5" height="5.51877" rx="2.5" fill="#C4C4C4"/>
<rect x="246" y="846.578" width="5" height="5.51877" rx="2.5" fill="#C4C4C4"/>
<rect x="267" y="867.551" width="5" height="5.51877" rx="2.5" fill="#C4C4C4"/>
<rect x="288" y="888.52" width="5" height="5.51877" rx="2.5" fill="#C4C4C4"/>
<rect x="309" y="909.492" width="5" height="5.51877" rx="2.5" fill="#C4C4C4"/>
<rect x="330" y="930.465" width="5" height="5.51877" rx="2.5" fill="#C4C4C4"/>
<rect x="351" y="951.434" width="5" height="5.51877" rx="2.5" fill="#C4C4C4"/>
<rect x="372" y="974.613" width="5" height="5.51877" rx="2.5" fill="#C4C4C4"/>
<defs>
<linearGradient id="paint0_linear_322_175" x1="-2.58714e-06" y1="332.23" x2="531.289" y2="365.225" gradientUnits="userSpaceOnUse">
<stop stop-color="white"/>
<stop offset="1" stop-color="#F1F4F8"/>
</linearGradient>
</defs>
</svg>
