<svg width="323" height="293" viewBox="0 0 323 293" fill="none" xmlns="http://www.w3.org/2000/svg">
<g opacity="0.55">
<path d="M226.243 69.625H224.794V25.5243C224.794 18.7549 222.373 12.2627 218.065 7.47591C213.756 2.68917 207.911 7.47399e-06 201.818 0H117.711C111.617 -1.28125e-05 105.773 2.68913 101.464 7.47585C97.1551 12.2626 94.7344 18.7548 94.7344 25.5242V267.464C94.7344 274.234 97.1551 280.726 101.464 285.513C105.773 290.299 111.617 292.989 117.711 292.989H201.818C207.911 292.989 213.756 290.299 218.064 285.513C222.373 280.726 224.794 274.234 224.794 267.464V101.017H226.243L226.243 69.625Z" fill="#3F3D56"/>
<path d="M219.903 25.7028V267.287C219.903 272.342 218.095 277.191 214.877 280.766C211.659 284.34 207.295 286.349 202.744 286.349H118.234C113.683 286.349 109.318 284.34 106.1 280.766C102.882 277.191 101.074 272.342 101.074 267.287V25.7028C101.074 20.6472 102.882 15.7987 106.1 12.2239C109.318 8.64908 113.683 6.64072 118.234 6.64062H128.486C127.982 8.01582 127.79 9.50748 127.927 10.9844C128.064 12.4613 128.526 13.8781 129.271 15.1104C130.017 16.3426 131.023 17.3524 132.203 18.051C133.382 18.7495 134.698 19.1155 136.034 19.1166H184.218C185.555 19.1155 186.871 18.7495 188.05 18.0509C189.229 17.3524 190.236 16.3426 190.981 15.1103C191.727 13.8781 192.189 12.4612 192.326 10.9844C192.463 9.50747 192.271 8.01583 191.767 6.64062H202.744C207.295 6.64072 211.659 8.64908 214.877 12.2239C218.095 15.7987 219.903 20.6472 219.903 25.7028V25.7028Z" fill="white"/>
<path d="M121.251 112.215C121.026 112.214 120.802 112.162 120.596 112.06C120.39 111.959 120.205 111.811 120.053 111.625L102.07 89.8322C101.866 89.5855 101.618 89.3884 101.342 89.2535C101.066 89.1186 100.768 89.0487 100.466 89.0483H5.43927C3.99719 89.0465 2.61462 88.4093 1.59491 87.2765C0.575202 86.1437 0.0016191 84.6079 0 83.0059V44.937C0.00161814 43.335 0.575202 41.7991 1.59491 40.6663C2.61462 39.5335 3.99718 38.8963 5.43927 38.8945H128.554C129.996 38.8963 131.378 39.5335 132.398 40.6663C133.418 41.7991 133.991 43.335 133.993 44.937V83.0059C133.991 84.6079 133.418 86.1438 132.398 87.2766C131.378 88.4093 129.996 89.0465 128.554 89.0483H125.063C124.486 89.0491 123.933 89.304 123.525 89.7572C123.117 90.2104 122.888 90.8248 122.887 91.4658V110.4C122.889 110.766 122.79 111.123 122.604 111.425C122.418 111.727 122.154 111.958 121.847 112.09C121.657 112.172 121.455 112.215 121.251 112.215V112.215Z" fill="white"/>
<path d="M121.251 112.215C121.026 112.214 120.802 112.162 120.596 112.06C120.39 111.959 120.205 111.811 120.053 111.625L102.07 89.8322C101.866 89.5855 101.618 89.3884 101.342 89.2535C101.066 89.1186 100.768 89.0487 100.466 89.0483H5.43927C3.99719 89.0465 2.61462 88.4093 1.59491 87.2765C0.575202 86.1437 0.0016191 84.6079 0 83.0059V44.937C0.00161814 43.335 0.575202 41.7991 1.59491 40.6663C2.61462 39.5335 3.99718 38.8963 5.43927 38.8945H128.554C129.996 38.8963 131.378 39.5335 132.398 40.6663C133.418 41.7991 133.991 43.335 133.993 44.937V83.0059C133.991 84.6079 133.418 86.1438 132.398 87.2766C131.378 88.4093 129.996 89.0465 128.554 89.0483H125.063C124.486 89.0491 123.933 89.304 123.525 89.7572C123.117 90.2104 122.888 90.8248 122.887 91.4658V110.4C122.889 110.766 122.79 111.123 122.604 111.425C122.418 111.727 122.154 111.958 121.847 112.09C121.657 112.172 121.455 112.215 121.251 112.215V112.215ZM5.43927 39.6997C4.18935 39.7013 2.99102 40.2535 2.10718 41.2354C1.22335 42.2172 0.726199 43.5484 0.724788 44.937V83.0059C0.726201 84.3944 1.22336 85.7256 2.10719 86.7075C2.99102 87.6893 4.18935 88.2416 5.43927 88.2432H100.466C100.868 88.2437 101.266 88.3368 101.634 88.5166C102.002 88.6965 102.332 88.9592 102.604 89.2881L120.587 111.081C120.711 111.231 120.872 111.335 121.05 111.381C121.228 111.428 121.414 111.413 121.584 111.339C121.755 111.266 121.901 111.137 122.004 110.969C122.107 110.802 122.162 110.603 122.163 110.4V91.4658C122.163 90.6114 122.469 89.7923 123.013 89.1881C123.557 88.584 124.294 88.2441 125.063 88.2432H128.554C129.804 88.2416 131.002 87.6893 131.886 86.7075C132.77 85.7256 133.267 84.3944 133.268 83.0059V44.937C133.267 43.5484 132.77 42.2172 131.886 41.2354C131.002 40.2535 129.804 39.7013 128.554 39.6997H5.43927Z" fill="#3F3D56"/>
<path d="M13.3416 55.688C15.9703 55.688 18.1012 53.3208 18.1012 50.4006C18.1012 47.4805 15.9703 45.1133 13.3416 45.1133C10.713 45.1133 8.58203 47.4805 8.58203 50.4006C8.58203 53.3208 10.713 55.688 13.3416 55.688Z" fill="#0556F3"/>
<path d="M122.999 79.6594H10.9907C10.6571 79.6598 10.3267 79.5872 10.0183 79.4457C9.71002 79.3042 9.42982 79.0965 9.19379 78.8346C8.95775 78.5727 8.77049 78.2617 8.64274 77.9194C8.51498 77.577 8.44922 77.2101 8.44922 76.8395C8.44922 76.4689 8.51498 76.1019 8.64274 75.7595C8.77049 75.4172 8.95775 75.1062 9.19379 74.8443C9.42982 74.5824 9.71002 74.3747 10.0183 74.2332C10.3267 74.0917 10.6571 74.0191 10.9907 74.0195H122.999C123.672 74.0204 124.317 74.3179 124.792 74.8467C125.268 75.3754 125.535 76.0922 125.535 76.8395C125.535 77.5868 125.268 78.3035 124.792 78.8323C124.317 79.361 123.672 79.6585 122.999 79.6594V79.6594Z" fill="#E6E6E6"/>
<path d="M86.5093 67.675H10.9907C10.6571 67.6755 10.3267 67.6028 10.0183 67.4613C9.71002 67.3198 9.42982 67.1122 9.19379 66.8503C8.95775 66.5884 8.77049 66.2774 8.64274 65.935C8.51498 65.5927 8.44922 65.2257 8.44922 64.8551C8.44922 64.4845 8.51498 64.1175 8.64274 63.7752C8.77049 63.4328 8.95775 63.1218 9.19379 62.8599C9.42982 62.598 9.71002 62.3904 10.0183 62.2489C10.3267 62.1073 10.6571 62.0347 10.9907 62.0352H86.5093C87.1826 62.0352 87.8282 62.3323 88.3043 62.8611C88.7803 63.3899 89.0478 64.1072 89.0478 64.8551C89.0478 65.603 88.7803 66.3202 88.3043 66.8491C87.8282 67.3779 87.1826 67.675 86.5093 67.675Z" fill="#E6E6E6"/>
<path d="M201.154 241.316C200.846 241.185 200.582 240.953 200.397 240.652C200.211 240.35 200.112 239.992 200.113 239.627V220.692C200.113 220.051 199.883 219.437 199.475 218.984C199.067 218.531 198.514 218.276 197.937 218.275H194.447C193.005 218.273 191.622 217.636 190.603 216.503C189.583 215.37 189.009 213.834 189.008 212.232V174.164C189.009 172.562 189.583 171.026 190.603 169.893C191.622 168.76 193.005 168.123 194.447 168.121H317.561C319.004 168.123 320.386 168.76 321.406 169.893C322.426 171.026 322.999 172.562 323.001 174.164V212.232C322.999 213.834 322.426 215.37 321.406 216.503C320.386 217.636 319.004 218.273 317.561 218.275H222.535C222.233 218.275 221.935 218.345 221.659 218.48C221.383 218.615 221.135 218.812 220.931 219.059L202.948 240.852C202.796 241.037 202.611 241.185 202.405 241.287C202.198 241.388 201.975 241.441 201.75 241.441C201.546 241.441 201.343 241.399 201.154 241.316V241.316Z" fill="white"/>
<path d="M201.154 241.316C200.846 241.185 200.582 240.953 200.397 240.652C200.211 240.35 200.112 239.992 200.113 239.627V220.692C200.113 220.051 199.883 219.437 199.475 218.984C199.067 218.531 198.514 218.276 197.937 218.275H194.447C193.005 218.273 191.622 217.636 190.603 216.503C189.583 215.37 189.009 213.834 189.008 212.232V174.164C189.009 172.562 189.583 171.026 190.603 169.893C191.622 168.76 193.005 168.123 194.447 168.121H317.561C319.004 168.123 320.386 168.76 321.406 169.893C322.426 171.026 322.999 172.562 323.001 174.164V212.232C322.999 213.834 322.426 215.37 321.406 216.503C320.386 217.636 319.004 218.273 317.561 218.275H222.535C222.233 218.275 221.935 218.345 221.659 218.48C221.383 218.615 221.135 218.812 220.931 219.059L202.948 240.852C202.796 241.037 202.611 241.185 202.405 241.287C202.198 241.388 201.975 241.441 201.75 241.441C201.546 241.441 201.343 241.399 201.154 241.316V241.316ZM194.447 168.926C193.197 168.928 191.999 169.48 191.115 170.462C190.231 171.444 189.734 172.775 189.733 174.164V212.232C189.734 213.621 190.231 214.952 191.115 215.934C191.999 216.916 193.197 217.468 194.447 217.47H197.937C198.707 217.471 199.444 217.811 199.988 218.415C200.532 219.019 200.837 219.838 200.838 220.692V239.627C200.838 239.83 200.893 240.028 200.997 240.196C201.1 240.363 201.246 240.492 201.416 240.566C201.587 240.639 201.773 240.654 201.951 240.608C202.129 240.562 202.29 240.457 202.414 240.308L220.396 218.515C220.668 218.186 220.999 217.923 221.367 217.743C221.735 217.563 222.133 217.47 222.535 217.47H317.561C318.811 217.468 320.01 216.916 320.894 215.934C321.777 214.952 322.275 213.621 322.276 212.232V174.164C322.275 172.775 321.777 171.444 320.894 170.462C320.01 169.48 318.811 168.928 317.561 168.926H194.447Z" fill="#3F3D56"/>
<path d="M204.322 184.512C206.951 184.512 209.082 182.145 209.082 179.225C209.082 176.305 206.951 173.938 204.322 173.938C201.693 173.938 199.562 176.305 199.562 179.225C199.562 182.145 201.693 184.512 204.322 184.512Z" fill="#0556F3"/>
<path d="M313.984 208.484H201.975C201.641 208.484 201.311 208.411 201.003 208.27C200.694 208.128 200.414 207.921 200.178 207.659C199.942 207.397 199.755 207.086 199.627 206.744C199.499 206.401 199.434 206.034 199.434 205.664C199.434 205.293 199.499 204.926 199.627 204.584C199.755 204.241 199.942 203.93 200.178 203.668C200.414 203.407 200.694 203.199 201.003 203.057C201.311 202.916 201.641 202.843 201.975 202.844H313.984C314.657 202.844 315.303 203.141 315.779 203.67C316.255 204.199 316.522 204.916 316.522 205.664C316.522 206.412 316.255 207.129 315.779 207.658C315.303 208.186 314.657 208.484 313.984 208.484Z" fill="#E6E6E6"/>
<path d="M277.494 196.499H201.975C201.641 196.5 201.311 196.427 201.003 196.286C200.694 196.144 200.414 195.936 200.178 195.674C199.942 195.413 199.755 195.102 199.627 194.759C199.499 194.417 199.434 194.05 199.434 193.679C199.434 193.309 199.499 192.942 199.627 192.599C199.755 192.257 199.942 191.946 200.178 191.684C200.414 191.422 200.694 191.215 201.003 191.073C201.311 190.932 201.641 190.859 201.975 190.859H277.494C278.166 190.86 278.811 191.158 279.287 191.686C279.762 192.215 280.029 192.932 280.029 193.679C280.029 194.427 279.762 195.143 279.287 195.672C278.811 196.201 278.166 196.498 277.494 196.499V196.499Z" fill="#E6E6E6"/>
</g>
</svg>
