<svg width="32" height="32" viewBox="0 0 32 32" fill="none" xmlns="http://www.w3.org/2000/svg">
<rect width="32" height="32" rx="16" fill=""/>
<path d="M17.9861 13.9443H16.0938C16.0269 11.1349 15.8426 8.49374 15.5412 6.01884H15.5244L12.6433 13.9443H11.2025L8.33854 6.01884H8.32208C8.10962 8.395 7.97579 11.0368 7.9202 13.9443H6.19531C6.30648 10.4087 6.58585 7.09403 7.03234 4H9.37779L12.1076 11.307H12.1244L14.871 4H17.1151C17.6066 7.62407 17.8969 10.9391 17.9861 13.9443V13.9443ZM26.193 6.60741C25.4225 10.2849 24.4059 12.9569 23.1444 14.6249C22.1614 15.9088 21.0845 16.5514 19.9118 16.5514C19.5991 16.5514 19.2134 16.4684 18.7563 16.3038V15.417C18.9797 15.4453 19.2419 15.4614 19.5432 15.4614C20.091 15.4614 20.5312 15.3289 20.8669 15.0632C21.2684 14.7397 21.4692 14.3759 21.4692 13.9736C21.4692 13.6976 21.3127 13.1335 21.0004 12.2793L18.9237 6.60709H20.7828L22.2733 10.8493C22.6083 11.8126 22.748 12.4851 22.692 12.8682C23.5071 10.9535 24.0765 8.86586 24.4008 6.60677H26.193V6.60741V6.60741Z" fill="#5D87A1"/>
<path d="M28 26.643H22.6246V16.6987H24.4328V25.4189H28V26.643ZM21.2175 26.8833L19.139 25.9811C19.3233 25.848 19.4995 25.7039 19.6582 25.537C20.5417 24.6242 20.9823 23.2743 20.9823 21.4864C20.9823 18.1965 19.5145 16.5508 16.5778 16.5508C15.1377 16.5508 14.0144 16.9682 13.211 17.8035C12.3283 18.7169 11.8876 20.062 11.8876 21.8402C11.8876 23.5883 12.2782 24.8706 13.0596 25.684C13.7745 26.4208 14.8521 26.7897 16.2933 26.7897C16.8308 26.7897 17.3241 26.7318 17.7735 26.6151L20.4795 28.0006L21.2175 26.8833ZM14.4843 24.6532C14.0264 24.0054 13.7975 22.9653 13.7975 21.5311C13.7975 19.0273 14.6624 17.7739 16.3938 17.7739C17.2989 17.7739 17.9622 18.0737 18.3864 18.6719C18.8435 19.3206 19.0735 20.3514 19.0735 21.7656C19.0735 24.29 18.2079 25.5524 16.4776 25.5524C15.5722 25.5527 14.9088 25.2539 14.4843 24.6532V24.6532ZM11.0996 23.8867C11.0996 24.73 10.7478 25.4218 10.045 25.9638C9.34142 26.5035 8.39798 26.7739 7.21575 26.7739C6.10995 26.7739 5.03779 26.4633 4 25.8451L4.48598 24.9912C5.37896 25.3845 6.18747 25.5801 6.91334 25.5801C7.59459 25.5801 8.12701 25.4472 8.51317 25.1838C8.89895 24.9195 9.12896 24.5486 9.12896 24.0797C9.12896 23.4889 8.66053 22.9839 7.80119 22.561C7.00877 22.1782 5.42394 21.378 5.42394 21.378C4.56497 20.8274 4.13494 20.2363 4.13494 19.2624C4.13494 18.4564 4.45563 17.8058 5.09739 17.3108C5.73988 16.8139 6.56887 16.5662 7.58508 16.5662C8.63457 16.5662 9.58862 16.8135 10.448 17.3031L10.0121 18.1573C9.27706 17.8826 8.55156 17.7453 7.83593 17.7453C7.25634 17.7453 6.80875 17.8678 6.49756 18.1139C6.18381 18.359 5.99037 18.6725 5.99037 19.0572C5.99037 19.6451 6.46867 20.1565 7.35141 20.5878C8.15444 20.9712 9.77877 21.7852 9.77877 21.7852C10.6597 22.3349 11.0996 22.9206 11.0996 23.8867" fill="#F8981D"/>
</svg>
