<svg width="201" height="150" viewBox="0 0 201 150" fill="none" xmlns="http://www.w3.org/2000/svg">
<path d="M195.655 149.998H5.51669C4.21875 149.996 2.97438 149.396 2.0566 148.328C1.13882 147.26 0.622561 145.813 0.621094 144.303V7.90314C0.622152 6.79689 1.00035 5.7363 1.67272 4.95404C2.34509 4.17178 3.25671 3.73174 4.2076 3.73047H196.902C197.87 3.73175 198.797 4.17938 199.481 4.97517C200.165 5.77095 200.55 6.84989 200.551 7.97528V144.303C200.549 145.813 200.033 147.26 199.115 148.328C198.198 149.396 196.953 149.996 195.655 149.998V149.998Z" fill="#F2F2F2"/>
<path d="M189.505 142.803H12.3008C9.70314 142.803 7.58984 140.5 7.58984 137.671V18.8922C7.58984 16.7935 9.15585 15.0859 11.0807 15.0859H190.667C192.624 15.0859 194.216 16.8216 194.216 18.9549V137.671C194.216 140.5 192.102 142.803 189.505 142.803Z" fill="white"/>
<path d="M200.481 8.61232H0.550781V5.71267C0.552663 4.19764 1.07103 2.74534 1.99215 1.67438C2.91326 0.603416 4.16192 0.00125624 5.46418 0H195.568C196.87 0.00124346 198.119 0.603398 199.04 1.67436C199.961 2.74532 200.479 4.19763 200.481 5.71267V8.61232Z" fill="#0556F3"/>
<path d="M9.47793 5.79305C10.1798 5.79305 10.7488 5.13107 10.7488 4.31449C10.7488 3.49791 10.1798 2.83594 9.47793 2.83594C8.77603 2.83594 8.20703 3.49791 8.20703 4.31449C8.20703 5.13107 8.77603 5.79305 9.47793 5.79305Z" fill="white"/>
<path d="M14.3061 5.79305C15.008 5.79305 15.577 5.13107 15.577 4.31449C15.577 3.49791 15.008 2.83594 14.3061 2.83594C13.6042 2.83594 13.0352 3.49791 13.0352 4.31449C13.0352 5.13107 13.6042 5.79305 14.3061 5.79305Z" fill="white"/>
<path d="M19.1264 5.79305C19.8283 5.79305 20.3973 5.13107 20.3973 4.31449C20.3973 3.49791 19.8283 2.83594 19.1264 2.83594C18.4245 2.83594 17.8555 3.49791 17.8555 4.31449C17.8555 5.13107 18.4245 5.79305 19.1264 5.79305Z" fill="white"/>
<path d="M96.7031 41.0603H62.0458C61.5291 41.0603 61.0336 40.8216 60.6683 40.3965C60.3029 39.9715 60.0977 39.395 60.0977 38.7938C60.0977 38.1927 60.3029 37.6162 60.6683 37.1912C61.0336 36.7661 61.5291 36.5273 62.0458 36.5273H96.7031C97.2198 36.5273 97.7153 36.7661 98.0807 37.1912C98.4461 37.6162 98.6513 38.1927 98.6513 38.7938C98.6513 39.395 98.4461 39.9715 98.0807 40.3965C97.7153 40.8216 97.2198 41.0603 96.7031 41.0603V41.0603Z" fill="#CCCCCC"/>
<path d="M139.766 41.0603H105.108C104.592 41.0603 104.096 40.8216 103.731 40.3965C103.365 39.9715 103.16 39.395 103.16 38.7938C103.16 38.1927 103.365 37.6162 103.731 37.1912C104.096 36.7661 104.592 36.5273 105.108 36.5273H139.766C140.282 36.5273 140.778 36.7661 141.143 37.1912C141.509 37.6162 141.714 38.1927 141.714 38.7938C141.714 39.395 141.509 39.9715 141.143 40.3965C140.778 40.8216 140.282 41.0603 139.766 41.0603V41.0603Z" fill="#CCCCCC"/>
<path d="M139.767 49.6502H79.4755C78.9588 49.6502 78.4633 49.4114 78.0979 48.9863C77.7326 48.5613 77.5273 47.9848 77.5273 47.3837C77.5273 46.7826 77.7326 46.2061 78.0979 45.781C78.4633 45.356 78.9588 45.1172 79.4755 45.1172H139.767C140.284 45.1172 140.779 45.356 141.144 45.781C141.51 46.2061 141.715 46.7826 141.715 47.3837C141.715 47.9848 141.51 48.5613 141.144 48.9863C140.779 49.4114 140.284 49.6502 139.767 49.6502Z" fill="#CCCCCC"/>
<path d="M96.7007 32.3533H62.0434C61.5272 32.3526 61.0323 32.1135 60.6674 31.6885C60.3026 31.2635 60.0977 30.6874 60.0977 30.0868C60.0977 29.4862 60.3026 28.9101 60.6674 28.4851C61.0323 28.0602 61.5272 27.8211 62.0434 27.8203H96.7007C96.9568 27.8199 97.2104 27.8783 97.447 27.992C97.6837 28.1058 97.8987 28.2727 98.0799 28.4832C98.261 28.6937 98.4047 28.9436 98.5028 29.2188C98.6009 29.494 98.6513 29.7889 98.6513 30.0868C98.6513 30.3847 98.6009 30.6796 98.5028 30.9548C98.4047 31.23 98.261 31.48 98.0799 31.6905C97.8987 31.901 97.6837 32.0679 97.447 32.1816C97.2104 32.2953 96.9568 32.3537 96.7007 32.3533V32.3533Z" fill="#CCCCCC"/>
<path d="M115.772 32.4705H105.929C105.412 32.4705 104.916 32.2317 104.551 31.8067C104.186 31.3816 103.98 30.8051 103.98 30.204C103.98 29.6029 104.186 29.0264 104.551 28.6013C104.916 28.1763 105.412 27.9375 105.929 27.9375H115.772C116.289 27.9375 116.784 28.1763 117.15 28.6013C117.515 29.0264 117.72 29.6029 117.72 30.204C117.72 30.8051 117.515 31.3816 117.15 31.8067C116.784 32.2317 116.289 32.4705 115.772 32.4705Z" fill="#CCCCCC"/>
<path d="M71.8869 49.6502H62.0434C61.5272 49.6495 61.0323 49.4103 60.6674 48.9854C60.3026 48.5604 60.0977 47.9843 60.0977 47.3837C60.0977 46.7831 60.3026 46.207 60.6674 45.782C61.0323 45.357 61.5272 45.1179 62.0434 45.1172H71.8869C72.143 45.1168 72.3966 45.1752 72.6332 45.2889C72.8699 45.4027 73.0849 45.5695 73.2661 45.78C73.4472 45.9905 73.591 46.2405 73.689 46.5157C73.7871 46.7909 73.8375 47.0858 73.8375 47.3837C73.8375 47.6816 73.7871 47.9765 73.689 48.2517C73.591 48.5269 73.4472 48.7768 73.2661 48.9873C73.0849 49.1978 72.8699 49.3647 72.6332 49.4785C72.3966 49.5922 72.143 49.6506 71.8869 49.6502Z" fill="#CCCCCC"/>
<path d="M96.7031 121.49H62.0458C61.5291 121.49 61.0336 121.251 60.6683 120.826C60.3029 120.401 60.0977 119.825 60.0977 119.224C60.0977 118.622 60.3029 118.046 60.6683 117.621C61.0336 117.196 61.5291 116.957 62.0458 116.957H96.7031C96.959 116.957 97.2123 117.016 97.4487 117.13C97.685 117.243 97.8998 117.41 98.0807 117.621C98.2616 117.831 98.4051 118.081 98.503 118.356C98.6009 118.631 98.6513 118.926 98.6513 119.224C98.6513 119.521 98.6009 119.816 98.503 120.091C98.4051 120.366 98.2616 120.616 98.0807 120.826C97.8998 121.037 97.685 121.204 97.4487 121.318C97.2123 121.431 96.959 121.49 96.7031 121.49V121.49Z" fill="#CCCCCC"/>
<path d="M139.766 121.49H105.108C104.592 121.49 104.096 121.251 103.731 120.826C103.365 120.401 103.16 119.825 103.16 119.224C103.16 118.622 103.365 118.046 103.731 117.621C104.096 117.196 104.592 116.957 105.108 116.957H139.766C140.021 116.957 140.275 117.016 140.511 117.13C140.748 117.243 140.962 117.41 141.143 117.621C141.324 117.831 141.468 118.081 141.566 118.356C141.663 118.631 141.714 118.926 141.714 119.224C141.714 119.521 141.663 119.816 141.566 120.091C141.468 120.366 141.324 120.616 141.143 120.826C140.962 121.037 140.748 121.204 140.511 121.318C140.275 121.431 140.021 121.49 139.766 121.49V121.49Z" fill="#CCCCCC"/>
<path d="M139.767 130.072H79.4755C78.9588 130.072 78.4633 129.833 78.0979 129.408C77.7326 128.983 77.5273 128.407 77.5273 127.806C77.5273 127.204 77.7326 126.628 78.0979 126.203C78.4633 125.778 78.9588 125.539 79.4755 125.539H139.767C140.023 125.539 140.277 125.597 140.513 125.711C140.75 125.825 140.965 125.991 141.146 126.202C141.327 126.412 141.471 126.662 141.569 126.938C141.667 127.213 141.718 127.508 141.718 127.806C141.718 128.103 141.667 128.398 141.569 128.674C141.471 128.949 141.327 129.199 141.146 129.409C140.965 129.62 140.75 129.787 140.513 129.9C140.277 130.014 140.023 130.072 139.767 130.072Z" fill="#CCCCCC"/>
<path d="M96.7031 112.775H62.0458C61.5291 112.775 61.0336 112.536 60.6683 112.111C60.3029 111.686 60.0977 111.11 60.0977 110.509C60.0977 109.908 60.3029 109.331 60.6683 108.906C61.0336 108.481 61.5291 108.242 62.0458 108.242H96.7031C97.2198 108.242 97.7153 108.481 98.0807 108.906C98.4461 109.331 98.6513 109.908 98.6513 110.509C98.6513 111.11 98.4461 111.686 98.0807 112.111C97.7153 112.536 97.2198 112.775 96.7031 112.775Z" fill="#CCCCCC"/>
<path d="M115.772 112.9H105.929C105.412 112.9 104.916 112.661 104.551 112.236C104.186 111.811 103.98 111.235 103.98 110.634C103.98 110.033 104.186 109.456 104.551 109.031C104.916 108.606 105.412 108.367 105.929 108.367H115.772C116.289 108.367 116.784 108.606 117.15 109.031C117.515 109.456 117.72 110.033 117.72 110.634C117.72 111.235 117.515 111.811 117.15 112.236C116.784 112.661 116.289 112.9 115.772 112.9V112.9Z" fill="#CCCCCC"/>
<path d="M71.8893 130.072H62.0458C61.5291 130.072 61.0336 129.833 60.6683 129.408C60.3029 128.983 60.0977 128.407 60.0977 127.806C60.0977 127.204 60.3029 126.628 60.6683 126.203C61.0336 125.778 61.5291 125.539 62.0458 125.539H71.8893C72.1454 125.539 72.399 125.597 72.6356 125.711C72.8722 125.825 73.0873 125.991 73.2685 126.202C73.4496 126.412 73.5933 126.662 73.6914 126.938C73.7895 127.213 73.8399 127.508 73.8399 127.806C73.8399 128.103 73.7895 128.398 73.6914 128.674C73.5933 128.949 73.4496 129.199 73.2685 129.409C73.0873 129.62 72.8722 129.787 72.6356 129.9C72.399 130.014 72.1454 130.072 71.8893 130.072Z" fill="#CCCCCC"/>
<path d="M87.6481 97.155C86.9126 97.1569 86.2062 96.8207 85.6829 96.2195L72.655 81.2527C72.3993 80.9589 72.1962 80.6089 72.0576 80.2231C71.919 79.8372 71.8477 79.4232 71.8477 79.005C71.8477 78.5868 71.919 78.1728 72.0576 77.787C72.1962 77.4011 72.3993 77.0511 72.655 76.7573L85.6302 61.8509C86.1708 61.2329 86.899 60.8879 87.6569 60.8906C88.4147 60.8934 89.1411 61.2438 89.6783 61.8657C90.216 62.4927 90.518 63.3422 90.518 64.2279C90.518 65.1136 90.216 65.9631 89.6783 66.5901L80.0367 77.8073C79.7363 78.1576 79.5676 78.6323 79.5676 79.1271C79.5676 79.6219 79.7363 80.0965 80.0367 80.4468L89.626 91.6031C90.0176 92.0577 90.2844 92.6374 90.3925 93.2686C90.5007 93.8999 90.4453 94.5542 90.2335 95.1488C90.0217 95.7434 89.6629 96.2515 89.2026 96.6086C88.7424 96.9658 88.2013 97.1559 87.6481 97.155V97.155Z" fill="#0556F3"/>
<path d="M108.406 97.155C107.853 97.1559 107.312 96.9658 106.852 96.6086C106.392 96.2515 106.033 95.7434 105.821 95.1488C105.609 94.5542 105.554 93.8999 105.662 93.2687C105.77 92.6374 106.037 92.0578 106.428 91.6031L116.018 80.4468C116.318 80.0965 116.487 79.6219 116.487 79.1271C116.487 78.6323 116.318 78.1577 116.018 77.8074L106.376 66.5901C106.11 66.2799 105.898 65.9117 105.754 65.5063C105.609 65.101 105.535 64.6666 105.535 64.2279C105.535 63.7892 105.609 63.3548 105.754 62.9495C105.898 62.5442 106.11 62.176 106.376 61.8658V61.8658C106.913 61.2438 107.64 60.8934 108.398 60.8906C109.156 60.8879 109.884 61.2329 110.424 61.8509L123.399 76.7573C123.655 77.0512 123.858 77.4011 123.997 77.787C124.136 78.1728 124.207 78.5868 124.207 79.005C124.207 79.4232 124.136 79.8372 123.997 80.2231C123.858 80.6089 123.655 80.9589 123.399 81.2527L110.372 96.2195C109.848 96.8206 109.142 97.1569 108.406 97.155Z" fill="#0556F3"/>
</svg>
