<svg width="1800" height="900" viewBox="0 0 1800 900" fill="none" xmlns="http://www.w3.org/2000/svg">
<rect width="1800" height="900" fill="url(#paint0_linear_308_301)"/>
<rect x="162" y="350" width="5" height="5" rx="2.5" fill="#C4C4C4"/>
<rect x="141" y="348" width="5" height="5" rx="2.5" fill="#C4C4C4"/>
<rect x="162" y="369" width="5" height="5" rx="2.5" fill="#C4C4C4"/>
<rect x="120" y="348" width="5" height="5" rx="2.5" fill="#C4C4C4"/>
<rect x="141" y="367" width="5" height="5" rx="2.5" fill="#C4C4C4"/>
<rect x="162" y="388" width="5" height="5" rx="2.5" fill="#C4C4C4"/>
<rect x="99" y="348" width="5" height="5" rx="2.5" fill="#C4C4C4"/>
<rect x="120" y="367" width="5" height="5" rx="2.5" fill="#C4C4C4"/>
<rect x="141" y="386" width="5" height="5" rx="2.5" fill="#C4C4C4"/>
<rect x="162" y="407" width="5" height="5" rx="2.5" fill="#C4C4C4"/>
<rect x="78" y="348" width="5" height="5" rx="2.5" fill="#C4C4C4"/>
<rect x="99" y="367" width="5" height="5" rx="2.5" fill="#C4C4C4"/>
<rect x="120" y="386" width="5" height="5" rx="2.5" fill="#C4C4C4"/>
<rect x="141" y="405" width="5" height="5" rx="2.5" fill="#C4C4C4"/>
<rect x="162" y="426" width="5" height="5" rx="2.5" fill="#C4C4C4"/>
<rect x="57" y="348" width="5" height="5" rx="2.5" fill="#C4C4C4"/>
<rect x="78" y="367" width="5" height="5" rx="2.5" fill="#C4C4C4"/>
<rect x="99" y="386" width="5" height="5" rx="2.5" fill="#C4C4C4"/>
<rect x="120" y="405" width="5" height="5" rx="2.5" fill="#C4C4C4"/>
<rect x="141" y="424" width="5" height="5" rx="2.5" fill="#C4C4C4"/>
<rect x="162" y="445" width="5" height="5" rx="2.5" fill="#C4C4C4"/>
<rect x="36" y="348" width="5" height="5" rx="2.5" fill="#C4C4C4"/>
<rect x="57" y="367" width="5" height="5" rx="2.5" fill="#C4C4C4"/>
<rect x="78" y="386" width="5" height="5" rx="2.5" fill="#C4C4C4"/>
<rect x="99" y="405" width="5" height="5" rx="2.5" fill="#C4C4C4"/>
<rect x="120" y="424" width="5" height="5" rx="2.5" fill="#C4C4C4"/>
<rect x="141" y="443" width="5" height="5" rx="2.5" fill="#C4C4C4"/>
<rect x="162" y="464" width="5" height="5" rx="2.5" fill="#C4C4C4"/>
<rect x="36" y="367" width="5" height="5" rx="2.5" fill="#C4C4C4"/>
<rect x="57" y="386" width="5" height="5" rx="2.5" fill="#C4C4C4"/>
<rect x="78" y="405" width="5" height="5" rx="2.5" fill="#C4C4C4"/>
<rect x="99" y="424" width="5" height="5" rx="2.5" fill="#C4C4C4"/>
<rect x="120" y="443" width="5" height="5" rx="2.5" fill="#C4C4C4"/>
<rect x="141" y="462" width="5" height="5" rx="2.5" fill="#C4C4C4"/>
<rect x="162" y="483" width="5" height="5" rx="2.5" fill="#C4C4C4"/>
<rect x="36" y="386" width="5" height="5" rx="2.5" fill="#C4C4C4"/>
<rect x="57" y="405" width="5" height="5" rx="2.5" fill="#C4C4C4"/>
<rect x="78" y="424" width="5" height="5" rx="2.5" fill="#C4C4C4"/>
<rect x="99" y="443" width="5" height="5" rx="2.5" fill="#C4C4C4"/>
<rect x="120" y="462" width="5" height="5" rx="2.5" fill="#C4C4C4"/>
<rect x="141" y="481" width="5" height="5" rx="2.5" fill="#C4C4C4"/>
<rect x="162" y="502" width="5" height="5" rx="2.5" fill="#C4C4C4"/>
<rect x="36" y="405" width="5" height="5" rx="2.5" fill="#C4C4C4"/>
<rect x="57" y="424" width="5" height="5" rx="2.5" fill="#C4C4C4"/>
<rect x="78" y="443" width="5" height="5" rx="2.5" fill="#C4C4C4"/>
<rect x="99" y="462" width="5" height="5" rx="2.5" fill="#C4C4C4"/>
<rect x="120" y="481" width="5" height="5" rx="2.5" fill="#C4C4C4"/>
<rect x="141" y="500" width="5" height="5" rx="2.5" fill="#C4C4C4"/>
<rect x="162" y="521" width="5" height="5" rx="2.5" fill="#C4C4C4"/>
<rect x="36" y="424" width="5" height="5" rx="2.5" fill="#C4C4C4"/>
<rect x="57" y="443" width="5" height="5" rx="2.5" fill="#C4C4C4"/>
<rect x="78" y="462" width="5" height="5" rx="2.5" fill="#C4C4C4"/>
<rect x="99" y="481" width="5" height="5" rx="2.5" fill="#C4C4C4"/>
<rect x="120" y="500" width="5" height="5" rx="2.5" fill="#C4C4C4"/>
<rect x="141" y="519" width="5" height="5" rx="2.5" fill="#C4C4C4"/>
<rect x="162" y="540" width="5" height="5" rx="2.5" fill="#C4C4C4"/>
<rect x="36" y="443" width="5" height="5" rx="2.5" fill="#C4C4C4"/>
<rect x="57" y="462" width="5" height="5" rx="2.5" fill="#C4C4C4"/>
<rect x="78" y="481" width="5" height="5" rx="2.5" fill="#C4C4C4"/>
<rect x="99" y="500" width="5" height="5" rx="2.5" fill="#C4C4C4"/>
<rect x="120" y="519" width="5" height="5" rx="2.5" fill="#C4C4C4"/>
<rect x="141" y="538" width="5" height="5" rx="2.5" fill="#C4C4C4"/>
<rect x="162" y="559" width="5" height="5" rx="2.5" fill="#C4C4C4"/>
<rect x="36" y="462" width="5" height="5" rx="2.5" fill="#C4C4C4"/>
<rect x="57" y="481" width="5" height="5" rx="2.5" fill="#C4C4C4"/>
<rect x="78" y="500" width="5" height="5" rx="2.5" fill="#C4C4C4"/>
<rect x="99" y="519" width="5" height="5" rx="2.5" fill="#C4C4C4"/>
<rect x="120" y="538" width="5" height="5" rx="2.5" fill="#C4C4C4"/>
<rect x="141" y="557" width="5" height="5" rx="2.5" fill="#C4C4C4"/>
<rect x="162" y="578" width="5" height="5" rx="2.5" fill="#C4C4C4"/>
<rect x="36" y="481" width="5" height="5" rx="2.5" fill="#C4C4C4"/>
<rect x="57" y="500" width="5" height="5" rx="2.5" fill="#C4C4C4"/>
<rect x="78" y="519" width="5" height="5" rx="2.5" fill="#C4C4C4"/>
<rect x="99" y="538" width="5" height="5" rx="2.5" fill="#C4C4C4"/>
<rect x="120" y="557" width="5" height="5" rx="2.5" fill="#C4C4C4"/>
<rect x="141" y="576" width="5" height="5" rx="2.5" fill="#C4C4C4"/>
<rect x="162" y="597" width="5" height="5" rx="2.5" fill="#C4C4C4"/>
<rect x="36" y="500" width="5" height="5" rx="2.5" fill="#C4C4C4"/>
<rect x="57" y="519" width="5" height="5" rx="2.5" fill="#C4C4C4"/>
<rect x="78" y="538" width="5" height="5" rx="2.5" fill="#C4C4C4"/>
<rect x="99" y="557" width="5" height="5" rx="2.5" fill="#C4C4C4"/>
<rect x="120" y="576" width="5" height="5" rx="2.5" fill="#C4C4C4"/>
<rect x="141" y="595" width="5" height="5" rx="2.5" fill="#C4C4C4"/>
<rect x="162" y="616" width="5" height="5" rx="2.5" fill="#C4C4C4"/>
<rect x="36" y="519" width="5" height="5" rx="2.5" fill="#C4C4C4"/>
<rect x="57" y="538" width="5" height="5" rx="2.5" fill="#C4C4C4"/>
<rect x="78" y="557" width="5" height="5" rx="2.5" fill="#C4C4C4"/>
<rect x="99" y="576" width="5" height="5" rx="2.5" fill="#C4C4C4"/>
<rect x="120" y="595" width="5" height="5" rx="2.5" fill="#C4C4C4"/>
<rect x="141" y="614" width="5" height="5" rx="2.5" fill="#C4C4C4"/>
<rect x="162" y="635" width="5" height="5" rx="2.5" fill="#C4C4C4"/>
<rect x="36" y="538" width="5" height="5" rx="2.5" fill="#C4C4C4"/>
<rect x="57" y="557" width="5" height="5" rx="2.5" fill="#C4C4C4"/>
<rect x="78" y="576" width="5" height="5" rx="2.5" fill="#C4C4C4"/>
<rect x="99" y="595" width="5" height="5" rx="2.5" fill="#C4C4C4"/>
<rect x="120" y="614" width="5" height="5" rx="2.5" fill="#C4C4C4"/>
<rect x="141" y="633" width="5" height="5" rx="2.5" fill="#C4C4C4"/>
<rect x="162" y="654" width="5" height="5" rx="2.5" fill="#C4C4C4"/>
<rect x="36" y="557" width="5" height="5" rx="2.5" fill="#C4C4C4"/>
<rect x="57" y="576" width="5" height="5" rx="2.5" fill="#C4C4C4"/>
<rect x="78" y="595" width="5" height="5" rx="2.5" fill="#C4C4C4"/>
<rect x="99" y="614" width="5" height="5" rx="2.5" fill="#C4C4C4"/>
<rect x="120" y="633" width="5" height="5" rx="2.5" fill="#C4C4C4"/>
<rect x="141" y="652" width="5" height="5" rx="2.5" fill="#C4C4C4"/>
<rect x="162" y="673" width="5" height="5" rx="2.5" fill="#C4C4C4"/>
<rect x="36" y="576" width="5" height="5" rx="2.5" fill="#C4C4C4"/>
<rect x="57" y="595" width="5" height="5" rx="2.5" fill="#C4C4C4"/>
<rect x="78" y="614" width="5" height="5" rx="2.5" fill="#C4C4C4"/>
<rect x="99" y="633" width="5" height="5" rx="2.5" fill="#C4C4C4"/>
<rect x="120" y="652" width="5" height="5" rx="2.5" fill="#C4C4C4"/>
<rect x="141" y="671" width="5" height="5" rx="2.5" fill="#C4C4C4"/>
<rect x="162" y="692" width="5" height="5" rx="2.5" fill="#C4C4C4"/>
<rect x="36" y="595" width="5" height="5" rx="2.5" fill="#C4C4C4"/>
<rect x="57" y="614" width="5" height="5" rx="2.5" fill="#C4C4C4"/>
<rect x="78" y="633" width="5" height="5" rx="2.5" fill="#C4C4C4"/>
<rect x="99" y="652" width="5" height="5" rx="2.5" fill="#C4C4C4"/>
<rect x="120" y="671" width="5" height="5" rx="2.5" fill="#C4C4C4"/>
<rect x="141" y="690" width="5" height="5" rx="2.5" fill="#C4C4C4"/>
<rect x="162" y="711" width="5" height="5" rx="2.5" fill="#C4C4C4"/>
<rect x="36" y="614" width="5" height="5" rx="2.5" fill="#C4C4C4"/>
<rect x="57" y="633" width="5" height="5" rx="2.5" fill="#C4C4C4"/>
<rect x="78" y="652" width="5" height="5" rx="2.5" fill="#C4C4C4"/>
<rect x="99" y="671" width="5" height="5" rx="2.5" fill="#C4C4C4"/>
<rect x="120" y="690" width="5" height="5" rx="2.5" fill="#C4C4C4"/>
<rect x="141" y="709" width="5" height="5" rx="2.5" fill="#C4C4C4"/>
<rect x="162" y="730" width="5" height="5" rx="2.5" fill="#C4C4C4"/>
<rect x="36" y="633" width="5" height="5" rx="2.5" fill="#C4C4C4"/>
<rect x="57" y="652" width="5" height="5" rx="2.5" fill="#C4C4C4"/>
<rect x="78" y="671" width="5" height="5" rx="2.5" fill="#C4C4C4"/>
<rect x="99" y="690" width="5" height="5" rx="2.5" fill="#C4C4C4"/>
<rect x="120" y="709" width="5" height="5" rx="2.5" fill="#C4C4C4"/>
<rect x="141" y="728" width="5" height="5" rx="2.5" fill="#C4C4C4"/>
<rect x="162" y="749" width="5" height="5" rx="2.5" fill="#C4C4C4"/>
<rect x="36" y="652" width="5" height="5" rx="2.5" fill="#C4C4C4"/>
<rect x="57" y="671" width="5" height="5" rx="2.5" fill="#C4C4C4"/>
<rect x="78" y="690" width="5" height="5" rx="2.5" fill="#C4C4C4"/>
<rect x="99" y="709" width="5" height="5" rx="2.5" fill="#C4C4C4"/>
<rect x="120" y="728" width="5" height="5" rx="2.5" fill="#C4C4C4"/>
<rect x="141" y="747" width="5" height="5" rx="2.5" fill="#C4C4C4"/>
<rect x="162" y="768" width="5" height="5" rx="2.5" fill="#C4C4C4"/>
<rect x="36" y="671" width="5" height="5" rx="2.5" fill="#C4C4C4"/>
<rect x="57" y="690" width="5" height="5" rx="2.5" fill="#C4C4C4"/>
<rect x="78" y="709" width="5" height="5" rx="2.5" fill="#C4C4C4"/>
<rect x="99" y="728" width="5" height="5" rx="2.5" fill="#C4C4C4"/>
<rect x="120" y="747" width="5" height="5" rx="2.5" fill="#C4C4C4"/>
<rect x="141" y="766" width="5" height="5" rx="2.5" fill="#C4C4C4"/>
<rect x="162" y="787" width="5" height="5" rx="2.5" fill="#C4C4C4"/>
<rect x="36" y="690" width="5" height="5" rx="2.5" fill="#C4C4C4"/>
<rect x="57" y="709" width="5" height="5" rx="2.5" fill="#C4C4C4"/>
<rect x="78" y="728" width="5" height="5" rx="2.5" fill="#C4C4C4"/>
<rect x="99" y="747" width="5" height="5" rx="2.5" fill="#C4C4C4"/>
<rect x="120" y="766" width="5" height="5" rx="2.5" fill="#C4C4C4"/>
<rect x="141" y="785" width="5" height="5" rx="2.5" fill="#C4C4C4"/>
<rect x="162" y="806" width="5" height="5" rx="2.5" fill="#C4C4C4"/>
<rect x="36" y="709" width="5" height="5" rx="2.5" fill="#C4C4C4"/>
<rect x="57" y="728" width="5" height="5" rx="2.5" fill="#C4C4C4"/>
<rect x="78" y="747" width="5" height="5" rx="2.5" fill="#C4C4C4"/>
<rect x="99" y="766" width="5" height="5" rx="2.5" fill="#C4C4C4"/>
<rect x="120" y="785" width="5" height="5" rx="2.5" fill="#C4C4C4"/>
<rect x="141" y="804" width="5" height="5" rx="2.5" fill="#C4C4C4"/>
<rect x="162" y="825" width="5" height="5" rx="2.5" fill="#C4C4C4"/>
<rect x="36" y="728" width="5" height="5" rx="2.5" fill="#C4C4C4"/>
<rect x="57" y="747" width="5" height="5" rx="2.5" fill="#C4C4C4"/>
<rect x="78" y="766" width="5" height="5" rx="2.5" fill="#C4C4C4"/>
<rect x="99" y="785" width="5" height="5" rx="2.5" fill="#C4C4C4"/>
<rect x="120" y="804" width="5" height="5" rx="2.5" fill="#C4C4C4"/>
<rect x="141" y="823" width="5" height="5" rx="2.5" fill="#C4C4C4"/>
<rect x="162" y="844" width="5" height="5" rx="2.5" fill="#C4C4C4"/>
<defs>
<linearGradient id="paint0_linear_308_301" x1="-1.16421e-05" y1="301" x2="2191.5" y2="977" gradientUnits="userSpaceOnUse">
<stop stop-color="white"/>
<stop offset="1" stop-color="#F1F4F8"/>
</linearGradient>
</defs>
</svg>
